<svg id="Layer_1" data-name="Layer 1" xmlns="http://www.w3.org/2000/svg" xmlns:xlink="http://www.w3.org/1999/xlink" viewBox="0 0 808.24 1373.79"><defs><style>.cls-1{fill:none;}.cls-2{clip-path:url(#clip-path);}.cls-3{fill:#c8d4ea;}</style><clipPath id="clip-path" transform="translate(7.59 -41.83)"><rect id="SVGID" class="cls-1" x="-57.93" y="-79.38" width="907.87" height="1598.76"/></clipPath></defs><title>line</title><g class="cls-2"><rect class="cls-3" width="808.24" height="4.57"/><rect class="cls-3" y="52.66" width="808.24" height="4.57"/><rect class="cls-3" y="105.32" width="808.24" height="4.57"/><rect class="cls-3" y="157.99" width="808.24" height="4.57"/><rect class="cls-3" y="210.65" width="808.24" height="4.57"/><rect class="cls-3" y="263.31" width="808.24" height="4.57"/><rect class="cls-3" y="315.97" width="808.24" height="4.57"/><rect class="cls-3" y="368.64" width="808.24" height="4.57"/><rect class="cls-3" y="421.3" width="808.24" height="4.57"/><rect class="cls-3" y="473.96" width="808.24" height="4.57"/><rect class="cls-3" y="526.62" width="808.24" height="4.57"/><rect class="cls-3" y="579.29" width="808.24" height="4.57"/><rect class="cls-3" y="631.95" width="808.24" height="4.57"/><rect class="cls-3" y="684.61" width="808.24" height="4.57"/><rect class="cls-3" y="737.27" width="808.24" height="4.57"/><rect class="cls-3" y="789.94" width="808.24" height="4.57"/><rect class="cls-3" y="842.6" width="808.24" height="4.57"/><rect class="cls-3" y="895.26" width="808.24" height="4.57"/><rect class="cls-3" y="947.92" width="808.24" height="4.57"/><rect class="cls-3" y="1000.59" width="808.24" height="4.57"/><rect class="cls-3" y="1053.25" width="808.24" height="4.57"/><rect class="cls-3" y="1105.91" width="808.24" height="4.57"/><rect class="cls-3" y="1158.57" width="808.24" height="4.57"/><rect class="cls-3" y="1211.24" width="808.24" height="4.57"/><rect class="cls-3" y="1263.9" width="808.24" height="4.57"/><rect class="cls-3" y="1316.56" width="808.24" height="4.57"/><rect class="cls-3" y="1369.22" width="808.24" height="4.57"/></g></svg>